<svg xmlns="http://www.w3.org/2000/svg" viewBox="0 0 24 24">
  <path fill="#FF9900" d="M18.42 14.58c-.51-.77-.51-1.54-.51-2.31 0-.77 0-1.54.51-2.31.51-.77 1.54-1.54 2.57-2.31-1.03-.77-2.06-1.54-2.57-2.31-.51-.77-.51-1.54-.51-2.31 0-.77 0-1.54.51-2.31-1.03 0-2.06 0-2.57.77-.51.77-.51 1.54-.51 2.31 0 .77 0 1.54-.51 2.31-.51.77-1.54 1.54-2.57 2.31.51.77 1.54 1.54 2.57 2.31.51.77.51 1.54.51 2.31 0 .77 0 1.54.51 2.31.51.77 1.54.77 2.57.77-.51-.77-.51-1.54-.51-2.31 0-.77 0-1.54.51-2.31.51-.77 1.54-1.54 2.57-2.31-1.03-.77-2.06-1.54-2.57-2.31z"/>
  <path fill="#000000" d="M13.24 16.89c-2.57 1.54-5.14 2.31-7.71 2.31-3.6 0-6.17-1.54-7.71-3.86 0 0 0-.77.51-.77.51 0 .51 0 .51.77 1.54 1.54 3.6 2.31 6.17 2.31 2.06 0 4.11-.77 6.17-1.54.51-.77 1.03-.77 1.54-.77.51 0 1.03 0 1.54.77 0 0 0 .77-.51.77h-.51zm2.06-1.54c-.51 0-1.03 0-1.54-.77 0 0 0-.77.51-.77h.51c.51 0 1.03 0 1.54.77 0 0 0 .77-.51.77h-.51z"/>
</svg>