<svg xmlns="http://www.w3.org/2000/svg" viewBox="0 0 800 800" width="800" height="800" role="img" aria-label="Decorative scheduling illustration">
  <defs>
    <linearGradient id="gradA" x1="0" y1="0" x2="1" y2="1">
      <stop offset="0%" stop-color="#0ea5e9" stop-opacity="0.85"/>
      <stop offset="100%" stop-color="#a78bfa" stop-opacity="0.85"/>
    </linearGradient>
    <linearGradient id="gradB" x1="1" y1="0" x2="0" y2="1">
      <stop offset="0%" stop-color="#22c55e" stop-opacity="0.75"/>
      <stop offset="100%" stop-color="#f472b6" stop-opacity="0.75"/>
    </linearGradient>
    <filter id="blur" x="-20%" y="-20%" width="140%" height="140%">
      <feGaussianBlur stdDeviation="12" />
    </filter>
  </defs>

  <rect width="100%" height="100%" fill="none"/>

  <g filter="url(#blur)">
    <circle cx="620" cy="160" r="140" fill="url(#gradA)"/>
    <circle cx="140" cy="640" r="180" fill="url(#gradB)"/>
    <circle cx="760" cy="520" r="90" fill="#38bdf8" fill-opacity="0.25"/>
    <circle cx="60" cy="140" r="70" fill="#22c55e" fill-opacity="0.25"/>
  </g>

  <g opacity="0.35" stroke-width="2" fill="none">
    <path d="M60 620 C200 600, 260 520, 420 520 C560 520, 640 600, 740 590" stroke="#0ea5e9"/>
    <path d="M40 680 C240 670, 320 610, 460 610 C600 610, 680 680, 780 670" stroke="#a78bfa"/>
  </g>

  <g opacity="0.9">
    <rect x="120" y="220" rx="16" ry="16" width="360" height="200" fill="#ffffff" fill-opacity="0.85" stroke="#e2e8f0"/>
    <rect x="140" y="240" rx="8" ry="8" width="120" height="16" fill="#0ea5e9"/>
    <rect x="140" y="268" rx="6" ry="6" width="200" height="10" fill="#94a3b8"/>
    <rect x="140" y="288" rx="6" ry="6" width="240" height="10" fill="#cbd5e1"/>
    <rect x="140" y="320" rx="8" ry="8" width="300" height="56" fill="#f1f5f9"/>
    <rect x="140" y="388" rx="10" ry="10" width="120" height="24" fill="#0ea5e9"/>
  </g>

  <g opacity="0.9">
    <rect x="520" y="360" rx="16" ry="16" width="180" height="160" fill="#ffffff" fill-opacity="0.85" stroke="#e2e8f0"/>
    <circle cx="560" cy="408" r="18" fill="#22c55e"/>
    <rect x="590" y="396" rx="6" ry="6" width="88" height="12" fill="#94a3b8"/>
    <rect x="540" y="432" rx="6" ry="6" width="120" height="10" fill="#cbd5e1"/>
    <rect x="540" y="452" rx="6" ry="6" width="120" height="10" fill="#e2e8f0"/>
    <rect x="540" y="472" rx="8" ry="8" width="80" height="20" fill="#a78bfa"/>
  </g>
</svg>

